<?xml version="1.0" encoding="utf-8" standalone="no"?>
<!DOCTYPE svg PUBLIC "-//W3C//DTD SVG 1.1//EN"
  "http://www.w3.org/Graphics/SVG/1.1/DTD/svg11.dtd">
<svg xmlns:xlink="http://www.w3.org/1999/xlink" width="460.8pt" height="345.6pt" viewBox="0 0 460.8 345.6" xmlns="http://www.w3.org/2000/svg" version="1.1">
 <metadata>
  <rdf:RDF xmlns:dc="http://purl.org/dc/elements/1.1/" xmlns:cc="http://creativecommons.org/ns#" xmlns:rdf="http://www.w3.org/1999/02/22-rdf-syntax-ns#">
   <cc:Work>
    <dc:type rdf:resource="http://purl.org/dc/dcmitype/StillImage"/>
    <dc:date>2023-12-20T13:52:48.815721</dc:date>
    <dc:format>image/svg+xml</dc:format>
    <dc:creator>
     <cc:Agent>
      <dc:title>Matplotlib v3.8.2, https://matplotlib.org/</dc:title>
     </cc:Agent>
    </dc:creator>
   </cc:Work>
  </rdf:RDF>
 </metadata>
 <defs>
  <style type="text/css">*{stroke-linejoin: round; stroke-linecap: butt}</style>
 </defs>
 <g id="figure_1">
  <g id="patch_1">
   <path d="M 0 345.6 
L 460.8 345.6 
L 460.8 0 
L 0 0 
z
" style="fill: #ffffff"/>
  </g>
  <g id="axes_1">
   <g id="patch_2">
    <path d="M 57.6 307.584 
L 414.72 307.584 
L 414.72 41.472 
L 57.6 41.472 
z
" style="fill: #ffffff"/>
   </g>
   <g id="matplotlib.axis_1">
    <g id="xtick_1">
     <g id="line2d_1">
      <defs>
       <path id="mab7902f5c7" d="M 0 0 
L 0 3.5 
" style="stroke: #000000; stroke-width: 0.8"/>
      </defs>
      <g>
       <use xlink:href="#mab7902f5c7" x="73.182117" y="307.584" style="stroke: #000000; stroke-width: 0.8"/>
      </g>
     </g>
     <g id="text_1">
      <!-- 0 -->
      <g transform="translate(70.000867 322.182437) scale(0.1 -0.1)">
       <defs>
        <path id="DejaVuSans-30" d="M 2034 4250 
Q 1547 4250 1301 3770 
Q 1056 3291 1056 2328 
Q 1056 1369 1301 889 
Q 1547 409 2034 409 
Q 2525 409 2770 889 
Q 3016 1369 3016 2328 
Q 3016 3291 2770 3770 
Q 2525 4250 2034 4250 
z
M 2034 4750 
Q 2819 4750 3233 4129 
Q 3647 3509 3647 2328 
Q 3647 1150 3233 529 
Q 2819 -91 2034 -91 
Q 1250 -91 836 529 
Q 422 1150 422 2328 
Q 422 3509 836 4129 
Q 1250 4750 2034 4750 
z
" transform="scale(0.015625)"/>
       </defs>
       <use xlink:href="#DejaVuSans-30"/>
      </g>
     </g>
    </g>
    <g id="xtick_2">
     <g id="line2d_2">
      <g>
       <use xlink:href="#mab7902f5c7" x="138.243148" y="307.584" style="stroke: #000000; stroke-width: 0.8"/>
      </g>
     </g>
     <g id="text_2">
      <!-- 100 -->
      <g transform="translate(128.699398 322.182437) scale(0.1 -0.1)">
       <defs>
        <path id="DejaVuSans-31" d="M 794 531 
L 1825 531 
L 1825 4091 
L 703 3866 
L 703 4441 
L 1819 4666 
L 2450 4666 
L 2450 531 
L 3481 531 
L 3481 0 
L 794 0 
L 794 531 
z
" transform="scale(0.015625)"/>
       </defs>
       <use xlink:href="#DejaVuSans-31"/>
       <use xlink:href="#DejaVuSans-30" x="63.623047"/>
       <use xlink:href="#DejaVuSans-30" x="127.246094"/>
      </g>
     </g>
    </g>
    <g id="xtick_3">
     <g id="line2d_3">
      <g>
       <use xlink:href="#mab7902f5c7" x="203.304179" y="307.584" style="stroke: #000000; stroke-width: 0.8"/>
      </g>
     </g>
     <g id="text_3">
      <!-- 200 -->
      <g transform="translate(193.760429 322.182437) scale(0.1 -0.1)">
       <defs>
        <path id="DejaVuSans-32" d="M 1228 531 
L 3431 531 
L 3431 0 
L 469 0 
L 469 531 
Q 828 903 1448 1529 
Q 2069 2156 2228 2338 
Q 2531 2678 2651 2914 
Q 2772 3150 2772 3378 
Q 2772 3750 2511 3984 
Q 2250 4219 1831 4219 
Q 1534 4219 1204 4116 
Q 875 4013 500 3803 
L 500 4441 
Q 881 4594 1212 4672 
Q 1544 4750 1819 4750 
Q 2544 4750 2975 4387 
Q 3406 4025 3406 3419 
Q 3406 3131 3298 2873 
Q 3191 2616 2906 2266 
Q 2828 2175 2409 1742 
Q 1991 1309 1228 531 
z
" transform="scale(0.015625)"/>
       </defs>
       <use xlink:href="#DejaVuSans-32"/>
       <use xlink:href="#DejaVuSans-30" x="63.623047"/>
       <use xlink:href="#DejaVuSans-30" x="127.246094"/>
      </g>
     </g>
    </g>
    <g id="xtick_4">
     <g id="line2d_4">
      <g>
       <use xlink:href="#mab7902f5c7" x="268.36521" y="307.584" style="stroke: #000000; stroke-width: 0.8"/>
      </g>
     </g>
     <g id="text_4">
      <!-- 300 -->
      <g transform="translate(258.82146 322.182437) scale(0.1 -0.1)">
       <defs>
        <path id="DejaVuSans-33" d="M 2597 2516 
Q 3050 2419 3304 2112 
Q 3559 1806 3559 1356 
Q 3559 666 3084 287 
Q 2609 -91 1734 -91 
Q 1441 -91 1130 -33 
Q 819 25 488 141 
L 488 750 
Q 750 597 1062 519 
Q 1375 441 1716 441 
Q 2309 441 2620 675 
Q 2931 909 2931 1356 
Q 2931 1769 2642 2001 
Q 2353 2234 1838 2234 
L 1294 2234 
L 1294 2753 
L 1863 2753 
Q 2328 2753 2575 2939 
Q 2822 3125 2822 3475 
Q 2822 3834 2567 4026 
Q 2313 4219 1838 4219 
Q 1578 4219 1281 4162 
Q 984 4106 628 3988 
L 628 4550 
Q 988 4650 1302 4700 
Q 1616 4750 1894 4750 
Q 2613 4750 3031 4423 
Q 3450 4097 3450 3541 
Q 3450 3153 3228 2886 
Q 3006 2619 2597 2516 
z
" transform="scale(0.015625)"/>
       </defs>
       <use xlink:href="#DejaVuSans-33"/>
       <use xlink:href="#DejaVuSans-30" x="63.623047"/>
       <use xlink:href="#DejaVuSans-30" x="127.246094"/>
      </g>
     </g>
    </g>
    <g id="xtick_5">
     <g id="line2d_5">
      <g>
       <use xlink:href="#mab7902f5c7" x="333.426242" y="307.584" style="stroke: #000000; stroke-width: 0.8"/>
      </g>
     </g>
     <g id="text_5">
      <!-- 400 -->
      <g transform="translate(323.882492 322.182437) scale(0.1 -0.1)">
       <defs>
        <path id="DejaVuSans-34" d="M 2419 4116 
L 825 1625 
L 2419 1625 
L 2419 4116 
z
M 2253 4666 
L 3047 4666 
L 3047 1625 
L 3713 1625 
L 3713 1100 
L 3047 1100 
L 3047 0 
L 2419 0 
L 2419 1100 
L 313 1100 
L 313 1709 
L 2253 4666 
z
" transform="scale(0.015625)"/>
       </defs>
       <use xlink:href="#DejaVuSans-34"/>
       <use xlink:href="#DejaVuSans-30" x="63.623047"/>
       <use xlink:href="#DejaVuSans-30" x="127.246094"/>
      </g>
     </g>
    </g>
    <g id="xtick_6">
     <g id="line2d_6">
      <g>
       <use xlink:href="#mab7902f5c7" x="398.487273" y="307.584" style="stroke: #000000; stroke-width: 0.8"/>
      </g>
     </g>
     <g id="text_6">
      <!-- 500 -->
      <g transform="translate(388.943523 322.182437) scale(0.1 -0.1)">
       <defs>
        <path id="DejaVuSans-35" d="M 691 4666 
L 3169 4666 
L 3169 4134 
L 1269 4134 
L 1269 2991 
Q 1406 3038 1543 3061 
Q 1681 3084 1819 3084 
Q 2600 3084 3056 2656 
Q 3513 2228 3513 1497 
Q 3513 744 3044 326 
Q 2575 -91 1722 -91 
Q 1428 -91 1123 -41 
Q 819 9 494 109 
L 494 744 
Q 775 591 1075 516 
Q 1375 441 1709 441 
Q 2250 441 2565 725 
Q 2881 1009 2881 1497 
Q 2881 1984 2565 2268 
Q 2250 2553 1709 2553 
Q 1456 2553 1204 2497 
Q 953 2441 691 2322 
L 691 4666 
z
" transform="scale(0.015625)"/>
       </defs>
       <use xlink:href="#DejaVuSans-35"/>
       <use xlink:href="#DejaVuSans-30" x="63.623047"/>
       <use xlink:href="#DejaVuSans-30" x="127.246094"/>
      </g>
     </g>
    </g>
    <g id="text_7">
     <!-- Index -->
     <g transform="translate(222.393594 335.860562) scale(0.1 -0.1)">
      <defs>
       <path id="DejaVuSans-49" d="M 628 4666 
L 1259 4666 
L 1259 0 
L 628 0 
L 628 4666 
z
" transform="scale(0.015625)"/>
       <path id="DejaVuSans-6e" d="M 3513 2113 
L 3513 0 
L 2938 0 
L 2938 2094 
Q 2938 2591 2744 2837 
Q 2550 3084 2163 3084 
Q 1697 3084 1428 2787 
Q 1159 2491 1159 1978 
L 1159 0 
L 581 0 
L 581 3500 
L 1159 3500 
L 1159 2956 
Q 1366 3272 1645 3428 
Q 1925 3584 2291 3584 
Q 2894 3584 3203 3211 
Q 3513 2838 3513 2113 
z
" transform="scale(0.015625)"/>
       <path id="DejaVuSans-64" d="M 2906 2969 
L 2906 4863 
L 3481 4863 
L 3481 0 
L 2906 0 
L 2906 525 
Q 2725 213 2448 61 
Q 2172 -91 1784 -91 
Q 1150 -91 751 415 
Q 353 922 353 1747 
Q 353 2572 751 3078 
Q 1150 3584 1784 3584 
Q 2172 3584 2448 3432 
Q 2725 3281 2906 2969 
z
M 947 1747 
Q 947 1113 1208 752 
Q 1469 391 1925 391 
Q 2381 391 2643 752 
Q 2906 1113 2906 1747 
Q 2906 2381 2643 2742 
Q 2381 3103 1925 3103 
Q 1469 3103 1208 2742 
Q 947 2381 947 1747 
z
" transform="scale(0.015625)"/>
       <path id="DejaVuSans-65" d="M 3597 1894 
L 3597 1613 
L 953 1613 
Q 991 1019 1311 708 
Q 1631 397 2203 397 
Q 2534 397 2845 478 
Q 3156 559 3463 722 
L 3463 178 
Q 3153 47 2828 -22 
Q 2503 -91 2169 -91 
Q 1331 -91 842 396 
Q 353 884 353 1716 
Q 353 2575 817 3079 
Q 1281 3584 2069 3584 
Q 2775 3584 3186 3129 
Q 3597 2675 3597 1894 
z
M 3022 2063 
Q 3016 2534 2758 2815 
Q 2500 3097 2075 3097 
Q 1594 3097 1305 2825 
Q 1016 2553 972 2059 
L 3022 2063 
z
" transform="scale(0.015625)"/>
       <path id="DejaVuSans-78" d="M 3513 3500 
L 2247 1797 
L 3578 0 
L 2900 0 
L 1881 1375 
L 863 0 
L 184 0 
L 1544 1831 
L 300 3500 
L 978 3500 
L 1906 2253 
L 2834 3500 
L 3513 3500 
z
" transform="scale(0.015625)"/>
      </defs>
      <use xlink:href="#DejaVuSans-49"/>
      <use xlink:href="#DejaVuSans-6e" x="29.492188"/>
      <use xlink:href="#DejaVuSans-64" x="92.871094"/>
      <use xlink:href="#DejaVuSans-65" x="156.347656"/>
      <use xlink:href="#DejaVuSans-78" x="216.121094"/>
     </g>
    </g>
   </g>
   <g id="matplotlib.axis_2">
    <g id="ytick_1">
     <g id="line2d_7">
      <defs>
       <path id="mb68d4b8a40" d="M 0 0 
L -3.5 0 
" style="stroke: #000000; stroke-width: 0.8"/>
      </defs>
      <g>
       <use xlink:href="#mb68d4b8a40" x="57.6" y="286.516132" style="stroke: #000000; stroke-width: 0.8"/>
      </g>
     </g>
     <g id="text_8">
      <!-- 7 -->
      <g transform="translate(44.2375 290.315351) scale(0.1 -0.1)">
       <defs>
        <path id="DejaVuSans-37" d="M 525 4666 
L 3525 4666 
L 3525 4397 
L 1831 0 
L 1172 0 
L 2766 4134 
L 525 4134 
L 525 4666 
z
" transform="scale(0.015625)"/>
       </defs>
       <use xlink:href="#DejaVuSans-37"/>
      </g>
     </g>
    </g>
    <g id="ytick_2">
     <g id="line2d_8">
      <g>
       <use xlink:href="#mb68d4b8a40" x="57.6" y="254.473748" style="stroke: #000000; stroke-width: 0.8"/>
      </g>
     </g>
     <g id="text_9">
      <!-- 8 -->
      <g transform="translate(44.2375 258.272967) scale(0.1 -0.1)">
       <defs>
        <path id="DejaVuSans-38" d="M 2034 2216 
Q 1584 2216 1326 1975 
Q 1069 1734 1069 1313 
Q 1069 891 1326 650 
Q 1584 409 2034 409 
Q 2484 409 2743 651 
Q 3003 894 3003 1313 
Q 3003 1734 2745 1975 
Q 2488 2216 2034 2216 
z
M 1403 2484 
Q 997 2584 770 2862 
Q 544 3141 544 3541 
Q 544 4100 942 4425 
Q 1341 4750 2034 4750 
Q 2731 4750 3128 4425 
Q 3525 4100 3525 3541 
Q 3525 3141 3298 2862 
Q 3072 2584 2669 2484 
Q 3125 2378 3379 2068 
Q 3634 1759 3634 1313 
Q 3634 634 3220 271 
Q 2806 -91 2034 -91 
Q 1263 -91 848 271 
Q 434 634 434 1313 
Q 434 1759 690 2068 
Q 947 2378 1403 2484 
z
M 1172 3481 
Q 1172 3119 1398 2916 
Q 1625 2713 2034 2713 
Q 2441 2713 2670 2916 
Q 2900 3119 2900 3481 
Q 2900 3844 2670 4047 
Q 2441 4250 2034 4250 
Q 1625 4250 1398 4047 
Q 1172 3844 1172 3481 
z
" transform="scale(0.015625)"/>
       </defs>
       <use xlink:href="#DejaVuSans-38"/>
      </g>
     </g>
    </g>
    <g id="ytick_3">
     <g id="line2d_9">
      <g>
       <use xlink:href="#mb68d4b8a40" x="57.6" y="222.431364" style="stroke: #000000; stroke-width: 0.8"/>
      </g>
     </g>
     <g id="text_10">
      <!-- 9 -->
      <g transform="translate(44.2375 226.230583) scale(0.1 -0.1)">
       <defs>
        <path id="DejaVuSans-39" d="M 703 97 
L 703 672 
Q 941 559 1184 500 
Q 1428 441 1663 441 
Q 2288 441 2617 861 
Q 2947 1281 2994 2138 
Q 2813 1869 2534 1725 
Q 2256 1581 1919 1581 
Q 1219 1581 811 2004 
Q 403 2428 403 3163 
Q 403 3881 828 4315 
Q 1253 4750 1959 4750 
Q 2769 4750 3195 4129 
Q 3622 3509 3622 2328 
Q 3622 1225 3098 567 
Q 2575 -91 1691 -91 
Q 1453 -91 1209 -44 
Q 966 3 703 97 
z
M 1959 2075 
Q 2384 2075 2632 2365 
Q 2881 2656 2881 3163 
Q 2881 3666 2632 3958 
Q 2384 4250 1959 4250 
Q 1534 4250 1286 3958 
Q 1038 3666 1038 3163 
Q 1038 2656 1286 2365 
Q 1534 2075 1959 2075 
z
" transform="scale(0.015625)"/>
       </defs>
       <use xlink:href="#DejaVuSans-39"/>
      </g>
     </g>
    </g>
    <g id="ytick_4">
     <g id="line2d_10">
      <g>
       <use xlink:href="#mb68d4b8a40" x="57.6" y="190.38898" style="stroke: #000000; stroke-width: 0.8"/>
      </g>
     </g>
     <g id="text_11">
      <!-- 10 -->
      <g transform="translate(37.875 194.188199) scale(0.1 -0.1)">
       <use xlink:href="#DejaVuSans-31"/>
       <use xlink:href="#DejaVuSans-30" x="63.623047"/>
      </g>
     </g>
    </g>
    <g id="ytick_5">
     <g id="line2d_11">
      <g>
       <use xlink:href="#mb68d4b8a40" x="57.6" y="158.346596" style="stroke: #000000; stroke-width: 0.8"/>
      </g>
     </g>
     <g id="text_12">
      <!-- 11 -->
      <g transform="translate(37.875 162.145815) scale(0.1 -0.1)">
       <use xlink:href="#DejaVuSans-31"/>
       <use xlink:href="#DejaVuSans-31" x="63.623047"/>
      </g>
     </g>
    </g>
    <g id="ytick_6">
     <g id="line2d_12">
      <g>
       <use xlink:href="#mb68d4b8a40" x="57.6" y="126.304212" style="stroke: #000000; stroke-width: 0.8"/>
      </g>
     </g>
     <g id="text_13">
      <!-- 12 -->
      <g transform="translate(37.875 130.103431) scale(0.1 -0.1)">
       <use xlink:href="#DejaVuSans-31"/>
       <use xlink:href="#DejaVuSans-32" x="63.623047"/>
      </g>
     </g>
    </g>
    <g id="ytick_7">
     <g id="line2d_13">
      <g>
       <use xlink:href="#mb68d4b8a40" x="57.6" y="94.261828" style="stroke: #000000; stroke-width: 0.8"/>
      </g>
     </g>
     <g id="text_14">
      <!-- 13 -->
      <g transform="translate(37.875 98.061047) scale(0.1 -0.1)">
       <use xlink:href="#DejaVuSans-31"/>
       <use xlink:href="#DejaVuSans-33" x="63.623047"/>
      </g>
     </g>
    </g>
    <g id="ytick_8">
     <g id="line2d_14">
      <g>
       <use xlink:href="#mb68d4b8a40" x="57.6" y="62.219444" style="stroke: #000000; stroke-width: 0.8"/>
      </g>
     </g>
     <g id="text_15">
      <!-- 14 -->
      <g transform="translate(37.875 66.018662) scale(0.1 -0.1)">
       <use xlink:href="#DejaVuSans-31"/>
       <use xlink:href="#DejaVuSans-34" x="63.623047"/>
      </g>
     </g>
    </g>
    <g id="text_16">
     <!-- Value -->
     <g transform="translate(31.795313 188.25925) rotate(-90) scale(0.1 -0.1)">
      <defs>
       <path id="DejaVuSans-56" d="M 1831 0 
L 50 4666 
L 709 4666 
L 2188 738 
L 3669 4666 
L 4325 4666 
L 2547 0 
L 1831 0 
z
" transform="scale(0.015625)"/>
       <path id="DejaVuSans-61" d="M 2194 1759 
Q 1497 1759 1228 1600 
Q 959 1441 959 1056 
Q 959 750 1161 570 
Q 1363 391 1709 391 
Q 2188 391 2477 730 
Q 2766 1069 2766 1631 
L 2766 1759 
L 2194 1759 
z
M 3341 1997 
L 3341 0 
L 2766 0 
L 2766 531 
Q 2569 213 2275 61 
Q 1981 -91 1556 -91 
Q 1019 -91 701 211 
Q 384 513 384 1019 
Q 384 1609 779 1909 
Q 1175 2209 1959 2209 
L 2766 2209 
L 2766 2266 
Q 2766 2663 2505 2880 
Q 2244 3097 1772 3097 
Q 1472 3097 1187 3025 
Q 903 2953 641 2809 
L 641 3341 
Q 956 3463 1253 3523 
Q 1550 3584 1831 3584 
Q 2591 3584 2966 3190 
Q 3341 2797 3341 1997 
z
" transform="scale(0.015625)"/>
       <path id="DejaVuSans-6c" d="M 603 4863 
L 1178 4863 
L 1178 0 
L 603 0 
L 603 4863 
z
" transform="scale(0.015625)"/>
       <path id="DejaVuSans-75" d="M 544 1381 
L 544 3500 
L 1119 3500 
L 1119 1403 
Q 1119 906 1312 657 
Q 1506 409 1894 409 
Q 2359 409 2629 706 
Q 2900 1003 2900 1516 
L 2900 3500 
L 3475 3500 
L 3475 0 
L 2900 0 
L 2900 538 
Q 2691 219 2414 64 
Q 2138 -91 1772 -91 
Q 1169 -91 856 284 
Q 544 659 544 1381 
z
M 1991 3584 
L 1991 3584 
z
" transform="scale(0.015625)"/>
      </defs>
      <use xlink:href="#DejaVuSans-56"/>
      <use xlink:href="#DejaVuSans-61" x="60.658203"/>
      <use xlink:href="#DejaVuSans-6c" x="121.9375"/>
      <use xlink:href="#DejaVuSans-75" x="149.720703"/>
      <use xlink:href="#DejaVuSans-65" x="213.099609"/>
     </g>
    </g>
   </g>
   <g id="line2d_15">
    <path d="M 73.832727 183.339656 
L 74.483338 184.300927 
L 75.133948 173.406517 
L 75.784558 184.300927 
L 76.435169 174.688212 
L 77.085779 172.765669 
L 77.736389 163.793801 
L 78.386999 156.744477 
L 79.03761 160.269139 
L 79.68822 166.99804 
L 80.989441 177.89245 
L 81.640051 168.600159 
L 82.290661 166.99804 
L 82.941272 173.086093 
L 83.591882 172.445245 
L 84.242492 177.572026 
L 84.893103 176.290331 
L 85.543713 173.72694 
L 86.194323 177.572026 
L 86.844934 185.903046 
L 87.495544 187.184742 
L 88.146154 188.146013 
L 88.796764 188.786861 
L 89.447375 183.660079 
L 90.097985 174.688212 
L 90.748595 171.483974 
L 91.399206 179.49457 
L 92.049816 180.135417 
L 92.700426 161.871258 
L 93.351037 156.744477 
L 94.001647 154.821934 
L 94.652257 173.086093 
L 95.302868 164.114225 
L 95.953478 160.589563 
L 96.604088 166.677616 
L 97.254698 158.66702 
L 97.905309 157.064901 
L 98.555919 155.783205 
L 99.85714 144.247947 
L 100.50775 141.043709 
L 101.15836 143.607099 
L 101.808971 144.247947 
L 102.459581 152.258543 
L 103.110191 150.336 
L 103.760802 151.938119 
L 104.411412 140.723285 
L 105.062022 139.121166 
L 105.712633 142.966252 
L 106.363243 119.895735 
L 107.013853 117.973192 
L 107.664463 111.885139 
L 108.315074 116.691497 
L 109.616294 138.159894 
L 110.917515 124.381669 
L 111.568125 126.94506 
L 112.218736 144.568371 
L 112.869346 145.529642 
L 113.519956 139.121166 
L 114.170567 140.723285 
L 114.821177 140.402861 
L 115.471787 138.480318 
L 116.122398 141.043709 
L 116.773008 140.402861 
L 117.423618 138.480318 
L 118.074228 141.043709 
L 118.724839 133.994384 
L 119.375449 146.811338 
L 120.026059 147.131762 
L 120.67667 148.733881 
L 121.32728 136.557775 
L 121.97789 138.480318 
L 122.628501 127.906331 
L 123.279111 136.557775 
L 123.929721 133.353536 
L 124.580332 124.061245 
L 125.230942 122.77955 
L 125.881552 117.011921 
L 126.532163 128.226755 
L 127.182773 136.878199 
L 127.833383 132.392265 
L 128.483993 125.34294 
L 129.134604 133.353536 
L 131.086435 170.202278 
L 131.737045 176.931179 
L 132.387655 166.357192 
L 133.038266 172.445245 
L 133.688876 175.008636 
L 134.339486 180.135417 
L 134.990097 175.969907 
L 135.640707 169.881854 
L 136.291317 170.202278 
L 136.941927 170.202278 
L 137.592538 171.16355 
L 138.243148 162.512106 
L 138.893758 165.395921 
L 139.544369 157.385325 
L 140.194979 156.103629 
L 140.845589 163.793801 
L 141.4962 156.744477 
L 142.14681 166.99804 
L 142.79742 160.909987 
L 143.448031 168.279735 
L 144.098641 156.744477 
L 144.749251 151.938119 
L 145.399862 151.617695 
L 146.050472 151.938119 
L 147.351692 129.828874 
L 148.002303 127.265483 
L 148.652913 120.536583 
L 149.954134 140.082437 
L 150.604744 143.927523 
L 151.255354 143.607099 
L 151.905965 137.198623 
L 152.556575 144.888795 
L 153.207185 143.927523 
L 154.508406 151.938119 
L 155.809627 138.480318 
L 156.460237 147.772609 
L 157.110847 149.054305 
L 157.761457 142.00498 
L 158.412068 138.480318 
L 159.062678 147.131762 
L 159.713288 146.490914 
L 160.363899 156.103629 
L 161.014509 163.152954 
L 161.665119 146.17049 
L 162.31573 156.424053 
L 162.96634 159.948715 
L 163.61695 154.821934 
L 164.267561 145.850066 
L 164.918171 144.247947 
L 165.568781 143.286675 
L 166.219392 148.733881 
L 166.870002 152.899391 
L 167.520612 147.452185 
L 168.171222 150.015576 
L 169.472443 153.219815 
L 170.123053 149.374728 
L 170.773664 150.015576 
L 171.424274 153.219815 
L 172.074884 151.938119 
L 172.725495 141.043709 
L 173.376105 143.607099 
L 174.026715 148.733881 
L 174.677326 142.325404 
L 175.327936 152.578967 
L 175.978546 156.424053 
L 176.629156 152.258543 
L 177.279767 161.550834 
L 177.930377 165.716344 
L 178.580987 160.589563 
L 179.231598 160.589563 
L 179.882208 171.16355 
L 180.532818 171.16355 
L 181.183429 179.814993 
L 181.834039 176.290331 
L 182.484649 162.191682 
L 183.13526 175.32906 
L 183.78587 169.241007 
L 184.43648 164.434649 
L 185.087091 160.909987 
L 185.737701 160.269139 
L 186.388311 154.821934 
L 187.038921 151.297272 
L 187.689532 156.103629 
L 188.340142 155.462781 
L 188.990752 153.219815 
L 189.641363 153.219815 
L 190.291973 149.695152 
L 190.942583 138.480318 
L 191.593194 144.247947 
L 192.243804 134.635232 
L 192.894414 137.83947 
L 193.545025 133.994384 
L 194.195635 127.906331 
L 194.846245 125.663364 
L 195.496856 136.557775 
L 196.147466 136.557775 
L 196.798076 131.751417 
L 197.448686 130.790146 
L 198.099297 123.420397 
L 198.749907 135.916927 
L 199.400517 133.033113 
L 200.051128 120.536583 
L 201.352348 89.45547 
L 202.002959 105.156238 
L 202.653569 93.941404 
L 203.304179 106.11751 
L 203.95479 109.962596 
L 204.6054 112.205563 
L 205.25601 123.420397 
L 205.906621 111.564715 
L 206.557231 104.835815 
L 207.207841 95.223099 
L 207.858451 88.173775 
L 208.509062 75.677245 
L 209.159672 74.075126 
L 209.810282 70.870887 
L 210.460893 63.501139 
L 211.111503 65.423682 
L 211.762113 65.423682 
L 212.412724 53.568 
L 213.713944 67.346225 
L 214.364555 60.617325 
L 215.015165 69.268768 
L 215.665775 86.571656 
L 216.316385 68.948344 
L 216.966996 83.687841 
L 217.617606 79.201907 
L 218.268216 93.62098 
L 218.918827 90.096318 
L 219.569437 98.747762 
L 220.220047 90.416742 
L 220.870658 90.416742 
L 221.521268 88.814623 
L 222.171878 96.504795 
L 222.822489 92.980132 
L 223.473099 87.853351 
L 224.77432 102.592848 
L 225.42493 101.311152 
L 226.07554 97.466066 
L 226.72615 101.631576 
L 227.376761 99.068185 
L 228.677981 117.332344 
L 229.328592 116.691497 
L 229.979202 122.77955 
L 230.629812 124.381669 
L 231.280423 115.730225 
L 231.931033 119.575311 
L 232.581643 118.61404 
L 233.232254 112.205563 
L 233.882864 117.332344 
L 234.533474 126.94506 
L 235.184085 129.188026 
L 235.834695 130.790146 
L 236.485305 124.702093 
L 237.786526 144.888795 
L 238.437136 145.209219 
L 239.738357 124.702093 
L 241.039577 120.536583 
L 241.690188 134.314808 
L 242.340798 144.888795 
L 242.991408 144.247947 
L 243.642019 158.026172 
L 244.292629 161.230411 
L 244.943239 156.424053 
L 245.59385 157.385325 
L 246.24446 150.336 
L 246.89507 149.374728 
L 247.54568 151.297272 
L 248.196291 148.733881 
L 248.846901 144.888795 
L 249.497511 144.888795 
L 250.148122 150.015576 
L 250.798732 150.015576 
L 251.449342 151.297272 
L 252.099953 152.899391 
L 252.750563 151.617695 
L 253.401173 170.522702 
L 254.051784 170.522702 
L 254.702394 164.755073 
L 255.353004 172.124821 
L 256.654225 164.434649 
L 257.304835 166.357192 
L 257.955445 164.434649 
L 258.606056 161.550834 
L 259.256666 160.909987 
L 259.907276 151.617695 
L 260.557887 145.529642 
L 261.208497 160.909987 
L 261.859107 149.374728 
L 262.509718 165.716344 
L 263.160328 172.765669 
L 263.810938 174.367788 
L 264.461549 173.086093 
L 265.112159 168.920583 
L 265.762769 169.241007 
L 266.413379 163.793801 
L 267.06399 167.638887 
L 267.7146 168.279735 
L 268.36521 172.124821 
L 269.015821 172.445245 
L 269.666431 174.047364 
L 270.317041 177.251603 
L 270.967652 170.522702 
L 272.268872 186.543894 
L 272.919483 191.670675 
L 273.570093 192.311523 
L 274.220703 185.262199 
L 274.871314 187.184742 
L 276.172534 200.322119 
L 277.473755 185.903046 
L 278.124365 193.913642 
L 278.774975 190.38898 
L 279.425586 201.603815 
L 280.076196 189.427709 
L 280.726806 202.244662 
L 281.377417 196.797457 
L 282.028027 190.38898 
L 282.678637 188.786861 
L 283.329248 199.360848 
L 283.979858 201.924238 
L 285.281079 210.255258 
L 285.931689 209.614411 
L 286.582299 226.27645 
L 287.232909 224.033483 
L 287.88352 216.663735 
L 288.53413 213.139073 
L 289.18474 213.459497 
L 289.835351 211.536954 
L 290.485961 207.691868 
L 291.136571 215.702464 
L 291.787182 221.470093 
L 292.437792 237.811709 
L 293.088402 233.966623 
L 293.739013 240.054675 
L 294.389623 239.093404 
L 295.040233 241.977219 
L 295.690844 238.452556 
L 296.341454 239.093404 
L 296.992064 236.530013 
L 298.293285 227.558146 
L 298.943895 225.956026 
L 299.594505 221.149669 
L 300.245116 213.779921 
L 300.895726 213.459497 
L 301.546336 215.061616 
L 302.196947 219.54755 
L 302.847557 214.100344 
L 303.498167 228.839841 
L 304.148778 224.033483 
L 304.799388 223.71306 
L 305.449998 219.867974 
L 306.100608 223.072212 
L 306.751219 213.139073 
L 307.401829 217.304583 
L 308.70305 229.160265 
L 309.35366 225.315179 
L 310.00427 224.353907 
L 310.654881 229.801113 
L 311.305491 226.27645 
L 311.956101 228.519417 
L 312.606712 231.723656 
L 313.257322 241.656795 
L 313.907932 234.287046 
L 314.558543 237.491285 
L 315.209153 238.132132 
L 315.859763 228.198993 
L 316.510373 224.353907 
L 317.811594 226.917298 
L 318.462204 220.508821 
L 319.112815 223.392636 
L 319.763425 218.586278 
L 320.414035 229.160265 
L 321.064646 232.684927 
L 321.715256 237.170861 
L 322.365866 236.209589 
L 323.016477 236.209589 
L 323.667087 243.579338 
L 324.317697 236.530013 
L 324.968308 237.170861 
L 325.618918 241.977219 
L 326.269528 243.899762 
L 326.920138 244.220185 
L 327.570749 250.308238 
L 328.221359 246.463152 
L 328.871969 251.589934 
L 329.52258 258.959682 
L 330.17319 260.882225 
L 330.8238 257.677987 
L 331.474411 261.202649 
L 332.125021 268.892821 
L 333.426242 276.582993 
L 334.076852 282.671046 
L 334.727462 286.836556 
L 335.378073 285.875285 
L 336.028683 284.593589 
L 336.679293 282.030199 
L 337.329903 276.26257 
L 337.980514 277.544265 
L 338.631124 269.213245 
L 339.281734 268.892821 
L 339.932345 273.699179 
L 340.582955 268.251974 
L 341.233565 264.406887 
L 341.884176 262.484344 
L 342.534786 257.037139 
L 343.185396 265.368159 
L 343.836007 257.998411 
L 344.486617 265.047735 
L 345.137227 275.301298 
L 345.787837 271.135788 
L 346.438448 274.019603 
L 347.089058 272.417483 
L 347.739668 261.523073 
L 348.390279 264.406887 
L 349.040889 256.716715 
L 349.691499 254.153325 
L 350.34211 254.153325 
L 350.99272 254.794172 
L 352.293941 263.445616 
L 352.944551 270.174517 
L 353.595161 269.533669 
L 354.245772 275.301298 
L 354.896382 279.146384 
L 355.546992 277.544265 
L 356.197602 282.030199 
L 356.848213 282.99147 
L 357.498823 284.273166 
L 358.149433 276.582993 
L 358.800044 280.107656 
L 359.450654 275.942146 
L 360.101264 278.82596 
L 360.751875 278.185113 
L 361.402485 282.030199 
L 362.053095 287.15698 
L 362.703706 286.836556 
L 363.354316 288.118252 
L 364.004926 293.565457 
L 364.655537 295.488 
L 365.306147 288.759099 
L 365.956757 283.632318 
L 367.257978 279.466808 
L 367.908588 282.030199 
L 368.559198 283.952742 
L 369.209809 285.234437 
L 369.860419 288.118252 
L 370.511029 288.759099 
L 371.16164 281.709775 
L 371.81225 277.864689 
L 372.46286 269.854093 
L 373.764081 265.688583 
L 374.414691 269.533669 
L 375.065302 271.776636 
L 375.715912 271.135788 
L 376.366522 275.301298 
L 377.017132 276.582993 
L 377.667743 276.582993 
L 378.318353 275.621722 
L 378.968963 279.146384 
L 379.619574 273.699179 
L 380.270184 263.445616 
L 380.920794 260.241377 
L 381.571405 253.192053 
L 382.222015 241.336371 
L 382.872625 225.635603 
L 383.523236 226.27645 
L 384.173846 232.044079 
L 384.824456 240.375099 
L 385.475066 235.889166 
L 386.125677 236.850437 
L 386.776287 250.628662 
L 387.426897 250.628662 
L 388.077508 249.026543 
L 388.728118 243.579338 
L 389.378728 245.181457 
L 390.029339 256.075868 
L 390.679949 256.075868 
L 391.98117 241.656795 
L 392.63178 246.463152 
L 393.28239 253.512477 
L 393.933001 256.716715 
L 394.583611 264.727311 
L 395.234221 268.251974 
L 395.884831 274.980874 
L 396.535442 269.533669 
L 397.186052 258.959682 
L 397.836662 264.086464 
L 398.487273 264.406887 
L 398.487273 264.406887 
" clip-path="url(#p4d63c0a0bf)" style="fill: none; stroke-dasharray: 5.55,2.4; stroke-dashoffset: 0; stroke: #1f77b4; stroke-width: 1.5"/>
   </g>
   <g id="line2d_16">
    <path d="M 73.832727 183.339656 
L 74.483338 184.300927 
L 78.386999 156.744477 
L 88.796764 188.786861 
L 212.412724 53.568 
L 364.655537 295.488 
L 382.872625 225.635603 
L 395.884831 274.980874 
L 397.186052 258.959682 
L 398.487273 264.406887 
" clip-path="url(#p4d63c0a0bf)" style="fill: none; stroke-dasharray: 1.5,2.475; stroke-dashoffset: 0; stroke: #ff7f0e; stroke-width: 1.5"/>
    <defs>
     <path id="m52420e242d" d="M 0 3 
C 0.795609 3 1.55874 2.683901 2.12132 2.12132 
C 2.683901 1.55874 3 0.795609 3 0 
C 3 -0.795609 2.683901 -1.55874 2.12132 -2.12132 
C 1.55874 -2.683901 0.795609 -3 0 -3 
C -0.795609 -3 -1.55874 -2.683901 -2.12132 -2.12132 
C -2.683901 -1.55874 -3 -0.795609 -3 0 
C -3 0.795609 -2.683901 1.55874 -2.12132 2.12132 
C -1.55874 2.683901 -0.795609 3 0 3 
z
" style="stroke: #ff7f0e"/>
    </defs>
    <g clip-path="url(#p4d63c0a0bf)">
     <use xlink:href="#m52420e242d" x="73.832727" y="183.339656" style="fill: #ff7f0e; stroke: #ff7f0e"/>
     <use xlink:href="#m52420e242d" x="74.483338" y="184.300927" style="fill: #ff7f0e; stroke: #ff7f0e"/>
     <use xlink:href="#m52420e242d" x="78.386999" y="156.744477" style="fill: #ff7f0e; stroke: #ff7f0e"/>
     <use xlink:href="#m52420e242d" x="88.796764" y="188.786861" style="fill: #ff7f0e; stroke: #ff7f0e"/>
     <use xlink:href="#m52420e242d" x="212.412724" y="53.568" style="fill: #ff7f0e; stroke: #ff7f0e"/>
     <use xlink:href="#m52420e242d" x="364.655537" y="295.488" style="fill: #ff7f0e; stroke: #ff7f0e"/>
     <use xlink:href="#m52420e242d" x="382.872625" y="225.635603" style="fill: #ff7f0e; stroke: #ff7f0e"/>
     <use xlink:href="#m52420e242d" x="395.884831" y="274.980874" style="fill: #ff7f0e; stroke: #ff7f0e"/>
     <use xlink:href="#m52420e242d" x="397.186052" y="258.959682" style="fill: #ff7f0e; stroke: #ff7f0e"/>
     <use xlink:href="#m52420e242d" x="398.487273" y="264.406887" style="fill: #ff7f0e; stroke: #ff7f0e"/>
    </g>
   </g>
   <g id="line2d_17">
    <path d="M 88.796764 188.786861 
L 107.664463 111.885139 
L 134.339486 180.135417 
L 148.652913 120.536583 
L 181.183429 179.814993 
L 212.412724 53.568 
L 295.040233 241.977219 
L 306.751219 213.139073 
L 334.727462 286.836556 
L 349.691499 254.153325 
L 364.655537 295.488 
L 382.872625 225.635603 
L 395.884831 274.980874 
" clip-path="url(#p4d63c0a0bf)" style="fill: none; stroke: #2ca02c; stroke-width: 1.5; stroke-linecap: square"/>
   </g>
   <g id="patch_3">
    <path d="M 57.6 307.584 
L 57.6 41.472 
" style="fill: none; stroke: #000000; stroke-width: 0.8; stroke-linejoin: miter; stroke-linecap: square"/>
   </g>
   <g id="patch_4">
    <path d="M 414.72 307.584 
L 414.72 41.472 
" style="fill: none; stroke: #000000; stroke-width: 0.8; stroke-linejoin: miter; stroke-linecap: square"/>
   </g>
   <g id="patch_5">
    <path d="M 57.6 307.584 
L 414.72 307.584 
" style="fill: none; stroke: #000000; stroke-width: 0.8; stroke-linejoin: miter; stroke-linecap: square"/>
   </g>
   <g id="patch_6">
    <path d="M 57.6 41.472 
L 414.72 41.472 
" style="fill: none; stroke: #000000; stroke-width: 0.8; stroke-linejoin: miter; stroke-linecap: square"/>
   </g>
   <g id="text_17">
    <!-- ZigZag Sample 3a - Random Walk using percentage function -->
    <g transform="translate(53.488125 35.472) scale(0.12 -0.12)">
     <defs>
      <path id="DejaVuSans-5a" d="M 359 4666 
L 4025 4666 
L 4025 4184 
L 1075 531 
L 4097 531 
L 4097 0 
L 288 0 
L 288 481 
L 3238 4134 
L 359 4134 
L 359 4666 
z
" transform="scale(0.015625)"/>
      <path id="DejaVuSans-69" d="M 603 3500 
L 1178 3500 
L 1178 0 
L 603 0 
L 603 3500 
z
M 603 4863 
L 1178 4863 
L 1178 4134 
L 603 4134 
L 603 4863 
z
" transform="scale(0.015625)"/>
      <path id="DejaVuSans-67" d="M 2906 1791 
Q 2906 2416 2648 2759 
Q 2391 3103 1925 3103 
Q 1463 3103 1205 2759 
Q 947 2416 947 1791 
Q 947 1169 1205 825 
Q 1463 481 1925 481 
Q 2391 481 2648 825 
Q 2906 1169 2906 1791 
z
M 3481 434 
Q 3481 -459 3084 -895 
Q 2688 -1331 1869 -1331 
Q 1566 -1331 1297 -1286 
Q 1028 -1241 775 -1147 
L 775 -588 
Q 1028 -725 1275 -790 
Q 1522 -856 1778 -856 
Q 2344 -856 2625 -561 
Q 2906 -266 2906 331 
L 2906 616 
Q 2728 306 2450 153 
Q 2172 0 1784 0 
Q 1141 0 747 490 
Q 353 981 353 1791 
Q 353 2603 747 3093 
Q 1141 3584 1784 3584 
Q 2172 3584 2450 3431 
Q 2728 3278 2906 2969 
L 2906 3500 
L 3481 3500 
L 3481 434 
z
" transform="scale(0.015625)"/>
      <path id="DejaVuSans-20" transform="scale(0.015625)"/>
      <path id="DejaVuSans-53" d="M 3425 4513 
L 3425 3897 
Q 3066 4069 2747 4153 
Q 2428 4238 2131 4238 
Q 1616 4238 1336 4038 
Q 1056 3838 1056 3469 
Q 1056 3159 1242 3001 
Q 1428 2844 1947 2747 
L 2328 2669 
Q 3034 2534 3370 2195 
Q 3706 1856 3706 1288 
Q 3706 609 3251 259 
Q 2797 -91 1919 -91 
Q 1588 -91 1214 -16 
Q 841 59 441 206 
L 441 856 
Q 825 641 1194 531 
Q 1563 422 1919 422 
Q 2459 422 2753 634 
Q 3047 847 3047 1241 
Q 3047 1584 2836 1778 
Q 2625 1972 2144 2069 
L 1759 2144 
Q 1053 2284 737 2584 
Q 422 2884 422 3419 
Q 422 4038 858 4394 
Q 1294 4750 2059 4750 
Q 2388 4750 2728 4690 
Q 3069 4631 3425 4513 
z
" transform="scale(0.015625)"/>
      <path id="DejaVuSans-6d" d="M 3328 2828 
Q 3544 3216 3844 3400 
Q 4144 3584 4550 3584 
Q 5097 3584 5394 3201 
Q 5691 2819 5691 2113 
L 5691 0 
L 5113 0 
L 5113 2094 
Q 5113 2597 4934 2840 
Q 4756 3084 4391 3084 
Q 3944 3084 3684 2787 
Q 3425 2491 3425 1978 
L 3425 0 
L 2847 0 
L 2847 2094 
Q 2847 2600 2669 2842 
Q 2491 3084 2119 3084 
Q 1678 3084 1418 2786 
Q 1159 2488 1159 1978 
L 1159 0 
L 581 0 
L 581 3500 
L 1159 3500 
L 1159 2956 
Q 1356 3278 1631 3431 
Q 1906 3584 2284 3584 
Q 2666 3584 2933 3390 
Q 3200 3197 3328 2828 
z
" transform="scale(0.015625)"/>
      <path id="DejaVuSans-70" d="M 1159 525 
L 1159 -1331 
L 581 -1331 
L 581 3500 
L 1159 3500 
L 1159 2969 
Q 1341 3281 1617 3432 
Q 1894 3584 2278 3584 
Q 2916 3584 3314 3078 
Q 3713 2572 3713 1747 
Q 3713 922 3314 415 
Q 2916 -91 2278 -91 
Q 1894 -91 1617 61 
Q 1341 213 1159 525 
z
M 3116 1747 
Q 3116 2381 2855 2742 
Q 2594 3103 2138 3103 
Q 1681 3103 1420 2742 
Q 1159 2381 1159 1747 
Q 1159 1113 1420 752 
Q 1681 391 2138 391 
Q 2594 391 2855 752 
Q 3116 1113 3116 1747 
z
" transform="scale(0.015625)"/>
      <path id="DejaVuSans-2d" d="M 313 2009 
L 1997 2009 
L 1997 1497 
L 313 1497 
L 313 2009 
z
" transform="scale(0.015625)"/>
      <path id="DejaVuSans-52" d="M 2841 2188 
Q 3044 2119 3236 1894 
Q 3428 1669 3622 1275 
L 4263 0 
L 3584 0 
L 2988 1197 
Q 2756 1666 2539 1819 
Q 2322 1972 1947 1972 
L 1259 1972 
L 1259 0 
L 628 0 
L 628 4666 
L 2053 4666 
Q 2853 4666 3247 4331 
Q 3641 3997 3641 3322 
Q 3641 2881 3436 2590 
Q 3231 2300 2841 2188 
z
M 1259 4147 
L 1259 2491 
L 2053 2491 
Q 2509 2491 2742 2702 
Q 2975 2913 2975 3322 
Q 2975 3731 2742 3939 
Q 2509 4147 2053 4147 
L 1259 4147 
z
" transform="scale(0.015625)"/>
      <path id="DejaVuSans-6f" d="M 1959 3097 
Q 1497 3097 1228 2736 
Q 959 2375 959 1747 
Q 959 1119 1226 758 
Q 1494 397 1959 397 
Q 2419 397 2687 759 
Q 2956 1122 2956 1747 
Q 2956 2369 2687 2733 
Q 2419 3097 1959 3097 
z
M 1959 3584 
Q 2709 3584 3137 3096 
Q 3566 2609 3566 1747 
Q 3566 888 3137 398 
Q 2709 -91 1959 -91 
Q 1206 -91 779 398 
Q 353 888 353 1747 
Q 353 2609 779 3096 
Q 1206 3584 1959 3584 
z
" transform="scale(0.015625)"/>
      <path id="DejaVuSans-57" d="M 213 4666 
L 850 4666 
L 1831 722 
L 2809 4666 
L 3519 4666 
L 4500 722 
L 5478 4666 
L 6119 4666 
L 4947 0 
L 4153 0 
L 3169 4050 
L 2175 0 
L 1381 0 
L 213 4666 
z
" transform="scale(0.015625)"/>
      <path id="DejaVuSans-6b" d="M 581 4863 
L 1159 4863 
L 1159 1991 
L 2875 3500 
L 3609 3500 
L 1753 1863 
L 3688 0 
L 2938 0 
L 1159 1709 
L 1159 0 
L 581 0 
L 581 4863 
z
" transform="scale(0.015625)"/>
      <path id="DejaVuSans-73" d="M 2834 3397 
L 2834 2853 
Q 2591 2978 2328 3040 
Q 2066 3103 1784 3103 
Q 1356 3103 1142 2972 
Q 928 2841 928 2578 
Q 928 2378 1081 2264 
Q 1234 2150 1697 2047 
L 1894 2003 
Q 2506 1872 2764 1633 
Q 3022 1394 3022 966 
Q 3022 478 2636 193 
Q 2250 -91 1575 -91 
Q 1294 -91 989 -36 
Q 684 19 347 128 
L 347 722 
Q 666 556 975 473 
Q 1284 391 1588 391 
Q 1994 391 2212 530 
Q 2431 669 2431 922 
Q 2431 1156 2273 1281 
Q 2116 1406 1581 1522 
L 1381 1569 
Q 847 1681 609 1914 
Q 372 2147 372 2553 
Q 372 3047 722 3315 
Q 1072 3584 1716 3584 
Q 2034 3584 2315 3537 
Q 2597 3491 2834 3397 
z
" transform="scale(0.015625)"/>
      <path id="DejaVuSans-72" d="M 2631 2963 
Q 2534 3019 2420 3045 
Q 2306 3072 2169 3072 
Q 1681 3072 1420 2755 
Q 1159 2438 1159 1844 
L 1159 0 
L 581 0 
L 581 3500 
L 1159 3500 
L 1159 2956 
Q 1341 3275 1631 3429 
Q 1922 3584 2338 3584 
Q 2397 3584 2469 3576 
Q 2541 3569 2628 3553 
L 2631 2963 
z
" transform="scale(0.015625)"/>
      <path id="DejaVuSans-63" d="M 3122 3366 
L 3122 2828 
Q 2878 2963 2633 3030 
Q 2388 3097 2138 3097 
Q 1578 3097 1268 2742 
Q 959 2388 959 1747 
Q 959 1106 1268 751 
Q 1578 397 2138 397 
Q 2388 397 2633 464 
Q 2878 531 3122 666 
L 3122 134 
Q 2881 22 2623 -34 
Q 2366 -91 2075 -91 
Q 1284 -91 818 406 
Q 353 903 353 1747 
Q 353 2603 823 3093 
Q 1294 3584 2113 3584 
Q 2378 3584 2631 3529 
Q 2884 3475 3122 3366 
z
" transform="scale(0.015625)"/>
      <path id="DejaVuSans-74" d="M 1172 4494 
L 1172 3500 
L 2356 3500 
L 2356 3053 
L 1172 3053 
L 1172 1153 
Q 1172 725 1289 603 
Q 1406 481 1766 481 
L 2356 481 
L 2356 0 
L 1766 0 
Q 1100 0 847 248 
Q 594 497 594 1153 
L 594 3053 
L 172 3053 
L 172 3500 
L 594 3500 
L 594 4494 
L 1172 4494 
z
" transform="scale(0.015625)"/>
      <path id="DejaVuSans-66" d="M 2375 4863 
L 2375 4384 
L 1825 4384 
Q 1516 4384 1395 4259 
Q 1275 4134 1275 3809 
L 1275 3500 
L 2222 3500 
L 2222 3053 
L 1275 3053 
L 1275 0 
L 697 0 
L 697 3053 
L 147 3053 
L 147 3500 
L 697 3500 
L 697 3744 
Q 697 4328 969 4595 
Q 1241 4863 1831 4863 
L 2375 4863 
z
" transform="scale(0.015625)"/>
     </defs>
     <use xlink:href="#DejaVuSans-5a"/>
     <use xlink:href="#DejaVuSans-69" x="68.505859"/>
     <use xlink:href="#DejaVuSans-67" x="96.289062"/>
     <use xlink:href="#DejaVuSans-5a" x="159.765625"/>
     <use xlink:href="#DejaVuSans-61" x="228.271484"/>
     <use xlink:href="#DejaVuSans-67" x="289.550781"/>
     <use xlink:href="#DejaVuSans-20" x="353.027344"/>
     <use xlink:href="#DejaVuSans-53" x="384.814453"/>
     <use xlink:href="#DejaVuSans-61" x="448.291016"/>
     <use xlink:href="#DejaVuSans-6d" x="509.570312"/>
     <use xlink:href="#DejaVuSans-70" x="606.982422"/>
     <use xlink:href="#DejaVuSans-6c" x="670.458984"/>
     <use xlink:href="#DejaVuSans-65" x="698.242188"/>
     <use xlink:href="#DejaVuSans-20" x="759.765625"/>
     <use xlink:href="#DejaVuSans-33" x="791.552734"/>
     <use xlink:href="#DejaVuSans-61" x="855.175781"/>
     <use xlink:href="#DejaVuSans-20" x="916.455078"/>
     <use xlink:href="#DejaVuSans-2d" x="948.242188"/>
     <use xlink:href="#DejaVuSans-20" x="984.326172"/>
     <use xlink:href="#DejaVuSans-52" x="1016.113281"/>
     <use xlink:href="#DejaVuSans-61" x="1083.345703"/>
     <use xlink:href="#DejaVuSans-6e" x="1144.625"/>
     <use xlink:href="#DejaVuSans-64" x="1208.003906"/>
     <use xlink:href="#DejaVuSans-6f" x="1271.480469"/>
     <use xlink:href="#DejaVuSans-6d" x="1332.662109"/>
     <use xlink:href="#DejaVuSans-20" x="1430.074219"/>
     <use xlink:href="#DejaVuSans-57" x="1461.861328"/>
     <use xlink:href="#DejaVuSans-61" x="1554.363281"/>
     <use xlink:href="#DejaVuSans-6c" x="1615.642578"/>
     <use xlink:href="#DejaVuSans-6b" x="1643.425781"/>
     <use xlink:href="#DejaVuSans-20" x="1701.335938"/>
     <use xlink:href="#DejaVuSans-75" x="1733.123047"/>
     <use xlink:href="#DejaVuSans-73" x="1796.501953"/>
     <use xlink:href="#DejaVuSans-69" x="1848.601562"/>
     <use xlink:href="#DejaVuSans-6e" x="1876.384766"/>
     <use xlink:href="#DejaVuSans-67" x="1939.763672"/>
     <use xlink:href="#DejaVuSans-20" x="2003.240234"/>
     <use xlink:href="#DejaVuSans-70" x="2035.027344"/>
     <use xlink:href="#DejaVuSans-65" x="2098.503906"/>
     <use xlink:href="#DejaVuSans-72" x="2160.027344"/>
     <use xlink:href="#DejaVuSans-63" x="2198.890625"/>
     <use xlink:href="#DejaVuSans-65" x="2253.871094"/>
     <use xlink:href="#DejaVuSans-6e" x="2315.394531"/>
     <use xlink:href="#DejaVuSans-74" x="2378.773438"/>
     <use xlink:href="#DejaVuSans-61" x="2417.982422"/>
     <use xlink:href="#DejaVuSans-67" x="2479.261719"/>
     <use xlink:href="#DejaVuSans-65" x="2542.738281"/>
     <use xlink:href="#DejaVuSans-20" x="2604.261719"/>
     <use xlink:href="#DejaVuSans-66" x="2636.048828"/>
     <use xlink:href="#DejaVuSans-75" x="2671.253906"/>
     <use xlink:href="#DejaVuSans-6e" x="2734.632812"/>
     <use xlink:href="#DejaVuSans-63" x="2798.011719"/>
     <use xlink:href="#DejaVuSans-74" x="2852.992188"/>
     <use xlink:href="#DejaVuSans-69" x="2892.201172"/>
     <use xlink:href="#DejaVuSans-6f" x="2919.984375"/>
     <use xlink:href="#DejaVuSans-6e" x="2981.166016"/>
    </g>
   </g>
   <g id="legend_1">
    <g id="patch_7">
     <path d="M 274.885625 93.506375 
L 407.72 93.506375 
Q 409.72 93.506375 409.72 91.506375 
L 409.72 48.472 
Q 409.72 46.472 407.72 46.472 
L 274.885625 46.472 
Q 272.885625 46.472 272.885625 48.472 
L 272.885625 91.506375 
Q 272.885625 93.506375 274.885625 93.506375 
z
" style="fill: #ffffff; opacity: 0.8; stroke: #cccccc; stroke-linejoin: miter"/>
    </g>
    <g id="line2d_18">
     <path d="M 276.885625 54.570438 
L 286.885625 54.570438 
L 296.885625 54.570438 
" style="fill: none; stroke-dasharray: 5.55,2.4; stroke-dashoffset: 0; stroke: #1f77b4; stroke-width: 1.5"/>
    </g>
    <g id="text_18">
     <!-- T -->
     <g transform="translate(304.885625 58.070438) scale(0.1 -0.1)">
      <defs>
       <path id="DejaVuSans-54" d="M -19 4666 
L 3928 4666 
L 3928 4134 
L 2272 4134 
L 2272 0 
L 1638 0 
L 1638 4134 
L -19 4134 
L -19 4666 
z
" transform="scale(0.015625)"/>
      </defs>
      <use xlink:href="#DejaVuSans-54"/>
     </g>
    </g>
    <g id="line2d_19">
     <path d="M 276.885625 69.248563 
L 286.885625 69.248563 
L 296.885625 69.248563 
" style="fill: none; stroke-dasharray: 1.5,2.475; stroke-dashoffset: 0; stroke: #ff7f0e; stroke-width: 1.5"/>
     <g>
      <use xlink:href="#m52420e242d" x="286.885625" y="69.248563" style="fill: #ff7f0e; stroke: #ff7f0e"/>
     </g>
    </g>
    <g id="text_19">
     <!-- Skeleton (10 points) -->
     <g transform="translate(304.885625 72.748563) scale(0.1 -0.1)">
      <defs>
       <path id="DejaVuSans-28" d="M 1984 4856 
Q 1566 4138 1362 3434 
Q 1159 2731 1159 2009 
Q 1159 1288 1364 580 
Q 1569 -128 1984 -844 
L 1484 -844 
Q 1016 -109 783 600 
Q 550 1309 550 2009 
Q 550 2706 781 3412 
Q 1013 4119 1484 4856 
L 1984 4856 
z
" transform="scale(0.015625)"/>
       <path id="DejaVuSans-29" d="M 513 4856 
L 1013 4856 
Q 1481 4119 1714 3412 
Q 1947 2706 1947 2009 
Q 1947 1309 1714 600 
Q 1481 -109 1013 -844 
L 513 -844 
Q 928 -128 1133 580 
Q 1338 1288 1338 2009 
Q 1338 2731 1133 3434 
Q 928 4138 513 4856 
z
" transform="scale(0.015625)"/>
      </defs>
      <use xlink:href="#DejaVuSans-53"/>
      <use xlink:href="#DejaVuSans-6b" x="63.476562"/>
      <use xlink:href="#DejaVuSans-65" x="117.761719"/>
      <use xlink:href="#DejaVuSans-6c" x="179.285156"/>
      <use xlink:href="#DejaVuSans-65" x="207.068359"/>
      <use xlink:href="#DejaVuSans-74" x="268.591797"/>
      <use xlink:href="#DejaVuSans-6f" x="307.800781"/>
      <use xlink:href="#DejaVuSans-6e" x="368.982422"/>
      <use xlink:href="#DejaVuSans-20" x="432.361328"/>
      <use xlink:href="#DejaVuSans-28" x="464.148438"/>
      <use xlink:href="#DejaVuSans-31" x="503.162109"/>
      <use xlink:href="#DejaVuSans-30" x="566.785156"/>
      <use xlink:href="#DejaVuSans-20" x="630.408203"/>
      <use xlink:href="#DejaVuSans-70" x="662.195312"/>
      <use xlink:href="#DejaVuSans-6f" x="725.671875"/>
      <use xlink:href="#DejaVuSans-69" x="786.853516"/>
      <use xlink:href="#DejaVuSans-6e" x="814.636719"/>
      <use xlink:href="#DejaVuSans-74" x="878.015625"/>
      <use xlink:href="#DejaVuSans-73" x="917.224609"/>
      <use xlink:href="#DejaVuSans-29" x="969.324219"/>
     </g>
    </g>
    <g id="line2d_20">
     <path d="M 276.885625 83.926688 
L 286.885625 83.926688 
L 296.885625 83.926688 
" style="fill: none; stroke: #2ca02c; stroke-width: 1.5; stroke-linecap: square"/>
    </g>
    <g id="text_20">
     <!-- Deviation=10 -->
     <g transform="translate(304.885625 87.426688) scale(0.1 -0.1)">
      <defs>
       <path id="DejaVuSans-44" d="M 1259 4147 
L 1259 519 
L 2022 519 
Q 2988 519 3436 956 
Q 3884 1394 3884 2338 
Q 3884 3275 3436 3711 
Q 2988 4147 2022 4147 
L 1259 4147 
z
M 628 4666 
L 1925 4666 
Q 3281 4666 3915 4102 
Q 4550 3538 4550 2338 
Q 4550 1131 3912 565 
Q 3275 0 1925 0 
L 628 0 
L 628 4666 
z
" transform="scale(0.015625)"/>
       <path id="DejaVuSans-76" d="M 191 3500 
L 800 3500 
L 1894 563 
L 2988 3500 
L 3597 3500 
L 2284 0 
L 1503 0 
L 191 3500 
z
" transform="scale(0.015625)"/>
       <path id="DejaVuSans-3d" d="M 678 2906 
L 4684 2906 
L 4684 2381 
L 678 2381 
L 678 2906 
z
M 678 1631 
L 4684 1631 
L 4684 1100 
L 678 1100 
L 678 1631 
z
" transform="scale(0.015625)"/>
      </defs>
      <use xlink:href="#DejaVuSans-44"/>
      <use xlink:href="#DejaVuSans-65" x="77.001953"/>
      <use xlink:href="#DejaVuSans-76" x="138.525391"/>
      <use xlink:href="#DejaVuSans-69" x="197.705078"/>
      <use xlink:href="#DejaVuSans-61" x="225.488281"/>
      <use xlink:href="#DejaVuSans-74" x="286.767578"/>
      <use xlink:href="#DejaVuSans-69" x="325.976562"/>
      <use xlink:href="#DejaVuSans-6f" x="353.759766"/>
      <use xlink:href="#DejaVuSans-6e" x="414.941406"/>
      <use xlink:href="#DejaVuSans-3d" x="478.320312"/>
      <use xlink:href="#DejaVuSans-31" x="562.109375"/>
      <use xlink:href="#DejaVuSans-30" x="625.732422"/>
     </g>
    </g>
   </g>
  </g>
 </g>
 <defs>
  <clipPath id="p4d63c0a0bf">
   <rect x="57.6" y="41.472" width="357.12" height="266.112"/>
  </clipPath>
 </defs>
</svg>
